<?xml version="1.0" encoding="UTF-8" standalone="no"?>
<!-- Created with Inkscape (http://www.inkscape.org/) -->

<svg
   xmlns:dc="http://purl.org/dc/elements/1.1/"
   xmlns:cc="http://creativecommons.org/ns#"
   xmlns:rdf="http://www.w3.org/1999/02/22-rdf-syntax-ns#"
   xmlns:svg="http://www.w3.org/2000/svg"
   xmlns="http://www.w3.org/2000/svg"
   xmlns:sodipodi="http://sodipodi.sourceforge.net/DTD/sodipodi-0.dtd"
   xmlns:inkscape="http://www.inkscape.org/namespaces/inkscape"
   width="198.4375mm"
   height="89.958328mm"
   viewBox="0 0 198.4375 89.958328"
   version="1.1"
   id="svg8"
   inkscape:version="0.92.4 (5da689c313, 2019-01-14)"
   sodipodi:docname="Indicitive Species.svg">
  <defs
     id="defs2" />
  <sodipodi:namedview
     id="base"
     pagecolor="#ffffff"
     bordercolor="#666666"
     borderopacity="1.0"
     inkscape:pageopacity="0.0"
     inkscape:pageshadow="2"
     inkscape:zoom="0.70710678"
     inkscape:cx="470.14347"
     inkscape:cy="166.06242"
     inkscape:document-units="mm"
     inkscape:current-layer="layer1"
     showgrid="false"
     inkscape:window-width="1366"
     inkscape:window-height="745"
     inkscape:window-x="-8"
     inkscape:window-y="-8"
     inkscape:window-maximized="1">
    <inkscape:grid
       type="xygrid"
       id="grid826"
       originx="13.229167"
       originy="-171.97917" />
  </sodipodi:namedview>
  <metadata
     id="metadata5">
    <rdf:RDF>
      <cc:Work
         rdf:about="">
        <dc:format>image/svg+xml</dc:format>
        <dc:type
           rdf:resource="http://purl.org/dc/dcmitype/StillImage" />
        <dc:title></dc:title>
      </cc:Work>
    </rdf:RDF>
  </metadata>
  <g
     inkscape:label="Layer 1"
     inkscape:groupmode="layer"
     id="layer1"
     transform="translate(13.229168,-35.0625)">
    <path
       id="path830"
       transform="matrix(0.26458333,0,0,0.26458333,-13.229168,35.0625)"
       style="opacity:0.66000001;fill:#5a9e9d;fill-opacity:0.70050764;stroke-width:0.92981356"
       d="m 30.568359,70.517578 c -0.568357,49.482402 3.059198,24.855015 34.578125,24.953125 l 18.089844,0.0039 6.34961,-3.673828 c 8.10323,-4.687782 12.377812,-4.802213 24.000002,-0.640625 7.55226,2.70426 9.18878,2.964626 15.05468,2.390625 4.15654,-0.40673 10.33256,-2.10127 16.76368,-4.597656 14.84741,-5.76336 14.5957,-3.953136 23.45312,1.107422 11.73399,6.704046 3.21123,0.494519 10.9375,3.203119 5.33426,1.87003 21.92497,6.29566 42.5,7.12695 26.54107,1.07236 48.3218,1.17717 52.70508,-0.390627 6.88911,0.809357 22.65663,0.308847 31.33008,-3.521473 7.05226,-2.947707 22.07286,-11.763903 26.16992,-15.359375 3.88661,-3.41079 12.43289,-5.6979 21.36523,-5.716797 26.13478,-0.402355 -3.86522,-0.402355 29.33204,0.945312 9.43454,1.101922 36.80274,3.652333 46.80274,8.652333 15,5 24.69878,9.955756 30.95702,16.134777 14.04298,13.86522 -5.95702,-1.134777 15.88086,14.05078 13.31406,9.25829 7.42774,7.74469 7.42773,8.39843 10e-6,0.55273 0.62337,0.73933 1.38672,0.41407 2.07825,-0.8856 9.95918,8.83899 19.34767,16.00194 4.57157,3.48785 12.08823,8.18922 15,10 2.91175,1.8108 9.94704,2.45477 13.47655,6.37696 3.52955,3.92219 7.74229,8.25369 9.36133,9.625 7.16212,8.99804 4.71363,6.14279 7.16212,8.99804 0.67147,0.78911 0.52846,0.30752 1.96483,3.27149 3.03517,11.72851 8.03517,21.72851 12.92774,30.88477 5.10743,10.84374 0.10743,0.84374 4.5039,11.08398 0.47567,5.0614 3.87792,9.39998 3.98633,14.47071 0,1.53721 4.93732,9.32443 6.6172,10.28906 3.30868,1.90001 5,5 14.85351,13.65039 15.14649,21.34961 17.26803,16.81096 25.14649,31.34961 1.89728,1.74856 -1.33865,17.568 14.70507,17.68555 8.73528,0.064 18.06722,0.46236 20.73633,0.88476 2.66914,0.42255 14.1835,0.5651 25.58789,0.31641 11.40442,-0.24794 31.55503,-0.36396 44.77929,-0.25586 l 24.04493,0.19531 V 189.66797 70.509766 C 700.00001,69.999983 644.26737,69.917643 606.4707,70 523.51389,69.61757 440.60106,70.272524 357.64648,70 h -63.52929 -63.5293 C 190,69.999983 190,69.999983 177.78318,70.490234 85.000002,69.999983 50.382936,69.970331 30.568359,70.517578 Z M 365.14648,45.994141 c -243.43099,196.003889 -121.71549,98.001949 0,0 z M 154.45117,82.320312 c 0.1143,0.0037 0.20943,0.04177 0.27735,0.117188 0.27166,0.301678 -0.2177,0.848822 -1.0879,1.216797 -1.25751,0.531734 0.49445,7.313377 1.35938,6.345686 0.4489,-0.502223 -0.89174,-7.690879 -0.54883,-7.679671 z"
       inkscape:connector-curvature="0"
       sodipodi:nodetypes="ccccssssssccscccssccccccccccccccsccccccccccccccccccc" />
    <rect
       style="opacity:1;fill:#ffffff;fill-opacity:1;stroke:#fffcfc;stroke-width:1.13900006;stroke-linecap:round;stroke-linejoin:bevel;stroke-miterlimit:4;stroke-dasharray:0, 12.52899984;stroke-dashoffset:0;stroke-opacity:1"
       id="rect848"
       width="5.2916636"
       height="55.5625"
       x="18.520832"
       y="61.520828" />
    <rect
       style="opacity:1;fill:#ffffff;fill-opacity:1;stroke:#fffcfc;stroke-width:1.13900006;stroke-linecap:round;stroke-linejoin:bevel;stroke-miterlimit:4;stroke-dasharray:0, 12.52899984;stroke-dashoffset:0;stroke-opacity:1"
       id="rect852"
       width="34.395832"
       height="7.9375"
       x="26.458332"
       y="85.333328" />
    <path
       style="opacity:1;fill:#ffffff;fill-opacity:1;stroke:#fffcfc;stroke-width:1.52200568;stroke-linecap:round;stroke-linejoin:bevel;stroke-miterlimit:4;stroke-dasharray:0, 16.74206148;stroke-dashoffset:0;stroke-opacity:1"
       d=""
       id="path860"
       inkscape:connector-curvature="0"
       transform="matrix(0.26458333,0,0,0.26458333,-13.229168,35.0625)" />
    <path
       style="opacity:1;fill:#ffffff;fill-opacity:1;stroke:#fffcfc;stroke-width:1.52200568;stroke-linecap:round;stroke-linejoin:bevel;stroke-miterlimit:4;stroke-dasharray:0, 16.74206148;stroke-dashoffset:0;stroke-opacity:1"
       d=""
       id="path862"
       inkscape:connector-curvature="0"
       transform="matrix(0.26458333,0,0,0.26458333,-13.229168,35.0625)" />
    <path
       style="opacity:1;fill:#ffffff;fill-opacity:1;stroke:#fffcfc;stroke-width:1.52200568;stroke-linecap:round;stroke-linejoin:bevel;stroke-miterlimit:4;stroke-dasharray:0, 16.74206148;stroke-dashoffset:0;stroke-opacity:1"
       d=""
       id="path864"
       inkscape:connector-curvature="0"
       transform="matrix(0.26458333,0,0,0.26458333,-13.229168,35.0625)" />
    <path
       style="opacity:1;fill:#ffffff;fill-opacity:1;stroke:#fffcfc;stroke-width:1.52200568;stroke-linecap:round;stroke-linejoin:bevel;stroke-miterlimit:4;stroke-dasharray:0, 16.74206148;stroke-dashoffset:0;stroke-opacity:1"
       d=""
       id="path866"
       inkscape:connector-curvature="0"
       transform="matrix(0.26458333,0,0,0.26458333,-13.229168,35.0625)" />
    <path
       style="opacity:1;fill:#ffffff;fill-opacity:1;stroke:#fffcfc;stroke-width:1.52200568;stroke-linecap:round;stroke-linejoin:bevel;stroke-miterlimit:4;stroke-dasharray:0, 16.74206148;stroke-dashoffset:0;stroke-opacity:1"
       d=""
       id="path868"
       inkscape:connector-curvature="0"
       transform="matrix(0.26458333,0,0,0.26458333,-13.229168,35.0625)" />
    <path
       style="opacity:1;fill:#ffffff;fill-opacity:1;stroke:#fffcfc;stroke-width:1.52200568;stroke-linecap:round;stroke-linejoin:bevel;stroke-miterlimit:4;stroke-dasharray:0, 16.74206148;stroke-dashoffset:0;stroke-opacity:1"
       d=""
       id="path870"
       inkscape:connector-curvature="0"
       transform="matrix(0.26458333,0,0,0.26458333,-13.229168,35.0625)" />
    <path
       style="opacity:1;fill:#ffffff;fill-opacity:1;stroke:#fffcfc;stroke-width:1.52200568;stroke-linecap:round;stroke-linejoin:bevel;stroke-miterlimit:4;stroke-dasharray:0, 16.74206148;stroke-dashoffset:0;stroke-opacity:1"
       d="m 561.75629,256.30742 c -0.13974,-0.34029 -0.51827,-0.61872 -0.84118,-0.61872 -0.51546,0 -0.55747,-0.31281 -0.34421,-2.56326 0.1336,-1.40979 0.41948,-3.19966 0.63528,-3.97747 l 0.39237,-1.41422 0.30805,1.7126 c 0.35661,1.98255 0.22947,7.78593 -0.15031,6.86107 z"
       id="path876"
       inkscape:connector-curvature="0"
       transform="matrix(0.26458333,0,0,0.26458333,-13.229168,35.0625)" />
    <path
       style="opacity:1;fill:#ffffff;fill-opacity:1;stroke:#fffcfc;stroke-width:1.07622051;stroke-linecap:round;stroke-linejoin:bevel;stroke-miterlimit:4;stroke-dasharray:0, 11.83842521;stroke-dashoffset:0;stroke-opacity:1"
       d="m 484.4508,129.66271 c 0,-0.40885 0.49096,-1.23357 0.73434,-1.23357 0.11921,0 0.3344,0.3375 0.4782,0.75 0.25199,0.72285 0.23478,0.75 -0.47554,0.75 -0.40535,0 -0.737,-0.1199 -0.737,-0.26643 z"
       id="path878"
       inkscape:connector-curvature="0"
       transform="matrix(0.26458333,0,0,0.26458333,-13.229168,35.0625)" />
    <path
       style="opacity:1;fill:#ffffff;fill-opacity:1;stroke:#fffcfc;stroke-width:1.07622051;stroke-linecap:round;stroke-linejoin:bevel;stroke-miterlimit:4;stroke-dasharray:0, 11.83842521;stroke-dashoffset:0;stroke-opacity:1"
       d=""
       id="path880"
       inkscape:connector-curvature="0"
       transform="matrix(0.26458333,0,0,0.26458333,-13.229168,35.0625)" />
    <path
       style="opacity:1;fill:#ffffff;fill-opacity:1;stroke:#fffcfc;stroke-width:0.76100284;stroke-linecap:round;stroke-linejoin:bevel;stroke-miterlimit:4;stroke-dasharray:0, 8.37103075;stroke-dashoffset:0;stroke-opacity:1"
       d="m 571.80867,259.75809 c -0.1875,-0.36753 -0.47763,-1.14314 -0.64473,-1.72358 -0.91223,-3.16873 -1.80856,-3.13605 -2.64619,0.0965 -0.41622,1.60624 -0.73016,2.15272 -1.19795,2.08532 -1.23283,-0.17764 -3.53834,-7.94 -2.62851,-8.84984 0.43523,-0.43523 0.81914,0.15032 1.53362,2.33912 0.75526,2.31373 1.13428,2.84607 1.5898,2.2329 0.1363,-0.18346 0.70353,-1.47808 1.26051,-2.87692 l 1.0127,-2.54336 0.64131,1.81627 c 1.46083,4.13728 2.10462,4.36005 3.06071,1.0591 0.38999,-1.34647 0.84495,-2.15965 1.20827,-2.15965 0.0822,0 0.14938,0.50687 0.14938,1.12638 0,1.29276 -0.59543,3.80141 -1.39,5.8563 -0.91714,2.37186 -1.35045,2.71458 -1.94892,1.54148 z"
       id="path884"
       inkscape:connector-curvature="0"
       transform="matrix(0.26458333,0,0,0.26458333,-13.229168,35.0625)" />
    <path
       style="opacity:1;fill:#ffffff;fill-opacity:1;stroke:#fffcfc;stroke-width:0.76100284;stroke-linecap:round;stroke-linejoin:bevel;stroke-miterlimit:4;stroke-dasharray:0, 8.37103075;stroke-dashoffset:0;stroke-opacity:1"
       d="m 577.85722,260.0837 c -0.92246,-0.41883 -1.32387,-1.01759 -1.33867,-1.99681 -0.0243,-1.60822 1.21794,-3.02005 2.84208,-3.23004 1.51398,-0.19576 1.62059,-0.24164 1.62059,-0.69743 0,-0.66532 -1.16675,-1.35728 -3.14312,-1.86408 -0.45264,-0.11607 -0.71022,-0.26913 -0.6411,-0.38096 0.22997,-0.37209 1.59375,-0.84955 2.43746,-0.85334 0.78205,-0.004 0.93352,0.0667 1.61562,0.74878 1.10023,1.10023 1.65725,3.28111 1.67023,6.53937 0.008,1.95186 -0.14555,2.07832 -2.51361,2.07325 -1.39464,-0.003 -1.98183,-0.081 -2.54948,-0.33874 z m 2.90303,-1.68437 c 0.45311,-0.48855 0.57453,-0.77191 0.57453,-1.34079 0,-0.99404 -0.25565,-1.40519 -0.87373,-1.40519 -0.99037,0 -2.68466,2.42993 -2.2193,3.1829 0.4252,0.68799 1.67654,0.4709 2.5185,-0.43692 z"
       id="path886"
       inkscape:connector-curvature="0"
       transform="matrix(0.26458333,0,0,0.26458333,-13.229168,35.0625)" />
    <path
       style="opacity:1;fill:#ffffff;fill-opacity:1;stroke:#fffcfc;stroke-width:0.76100284;stroke-linecap:round;stroke-linejoin:bevel;stroke-miterlimit:4;stroke-dasharray:0, 8.37103075;stroke-dashoffset:0;stroke-opacity:1"
       d="m 561.39786,261.04354 -0.56365,-1.14302 0.46276,-0.30321 c 0.25451,-0.16677 0.56835,-0.54565 0.69742,-0.84195 0.21556,-0.49489 0.23501,-0.39483 0.23888,1.22902 0.002,0.97227 -0.0579,1.86551 -0.13377,1.98497 -0.0895,0.14091 -0.33599,-0.18432 -0.70164,-0.92581 z"
       id="path888"
       inkscape:connector-curvature="0"
       transform="matrix(0.26458333,0,0,0.26458333,-13.229168,35.0625)" />
    <path
       style="fill:none;stroke:#000000;stroke-width:0.565;stroke-linecap:butt;stroke-linejoin:miter;stroke-miterlimit:4;stroke-dasharray:none;stroke-opacity:1"
       d="m 148.16667,48.291662 h 13.22917 15.875 5.29167 v 0"
       id="path894"
       inkscape:connector-curvature="0" />
    <path
       style="fill:none;stroke:#000000;stroke-width:0.565;stroke-linecap:butt;stroke-linejoin:miter;stroke-miterlimit:4;stroke-dasharray:none;stroke-opacity:1"
       d="m 111.12499,48.291662 h 13.22917 15.875 5.29167 v 0"
       id="path894-2"
       inkscape:connector-curvature="0" />
    <path
       style="fill:none;stroke:#000000;stroke-width:0.58999997;stroke-linecap:butt;stroke-linejoin:miter;stroke-miterlimit:4;stroke-dasharray:none;stroke-opacity:1"
       d="m 71.437495,48.291662 h 14.246798 17.096157 5.69872 v 0"
       id="path894-2-7"
       inkscape:connector-curvature="0" />
    <path
       style="fill:none;stroke:#000000;stroke-width:0.4929125;stroke-linecap:butt;stroke-linejoin:miter;stroke-miterlimit:4;stroke-dasharray:none;stroke-opacity:1"
       d="m 14.539731,48.291662 h 20.86613 25.039346 8.346459 v 0"
       id="path894-2-5"
       inkscape:connector-curvature="0" />
    <text
       xml:space="preserve"
       style="font-style:normal;font-weight:normal;font-size:6.3499999px;line-height:1.25;font-family:sans-serif;letter-spacing:0px;word-spacing:0px;fill:#000000;fill-opacity:1;stroke:none;stroke-width:0.26458332"
       x="159.97984"
       y="46.180504"
       id="text934"><tspan
         sodipodi:role="line"
         id="tspan932"
         x="159.97984"
         y="46.180504"
         style="font-style:normal;font-variant:normal;font-weight:normal;font-stretch:normal;font-size:4.93888903px;font-family:'Microsoft Sans Serif';-inkscape-font-specification:'Microsoft Sans Serif';stroke-width:0.26458332">Base</tspan></text>
    <text
       xml:space="preserve"
       style="font-style:normal;font-weight:normal;font-size:6.3499999px;line-height:1.25;font-family:sans-serif;letter-spacing:0px;word-spacing:0px;fill:#000000;fill-opacity:1;stroke:none;stroke-width:0.26458332"
       x="123.28387"
       y="45.832916"
       id="text934-7"><tspan
         sodipodi:role="line"
         id="tspan932-7"
         x="123.28387"
         y="45.832916"
         style="font-style:normal;font-variant:normal;font-weight:normal;font-stretch:normal;font-size:4.93888903px;font-family:'Microsoft Sans Serif';-inkscape-font-specification:'Microsoft Sans Serif';stroke-width:0.26458332">Slope</tspan></text>
    <text
       xml:space="preserve"
       style="font-style:normal;font-weight:normal;font-size:6.3499999px;line-height:1.25;font-family:sans-serif;letter-spacing:0px;word-spacing:0px;fill:#000000;fill-opacity:1;stroke:none;stroke-width:0.26458332"
       x="84.746437"
       y="45.806328"
       id="text934-0"><tspan
         sodipodi:role="line"
         id="tspan932-5"
         x="84.746437"
         y="45.806328"
         style="font-style:normal;font-variant:normal;font-weight:normal;font-stretch:normal;font-size:4.93888903px;font-family:'Microsoft Sans Serif';-inkscape-font-specification:'Microsoft Sans Serif';stroke-width:0.26458332">Crest</tspan></text>
    <text
       xml:space="preserve"
       style="font-style:normal;font-weight:normal;font-size:6.3499999px;line-height:1.25;font-family:sans-serif;letter-spacing:0px;word-spacing:0px;fill:#000000;fill-opacity:1;stroke:none;stroke-width:0.26458332"
       x="36.606915"
       y="46.179558"
       id="text934-1"><tspan
         sodipodi:role="line"
         id="tspan932-9"
         x="36.606915"
         y="46.179558"
         style="font-style:normal;font-variant:normal;font-weight:normal;font-stretch:normal;font-size:4.93888903px;font-family:'Microsoft Sans Serif';-inkscape-font-specification:'Microsoft Sans Serif';stroke-width:0.26458332">Flat</tspan></text>
    <path
       style="fill:none;stroke:#000000;stroke-width:0.565;stroke-linecap:butt;stroke-linejoin:miter;stroke-miterlimit:4;stroke-dasharray:none;stroke-opacity:1"
       d="m 14.539731,45.64583 c 0,5.291667 0,5.291667 0,5.291667 v 0"
       id="path970"
       inkscape:connector-curvature="0" />
    <path
       style="fill:none;stroke:#000000;stroke-width:0.56500006;stroke-linecap:butt;stroke-linejoin:miter;stroke-miterlimit:4;stroke-dasharray:none;stroke-opacity:1"
       d="m 68.791666,45.645828 c 0,5.291667 0,5.291667 0,5.291667 v 0"
       id="path970-6"
       inkscape:connector-curvature="0" />
    <path
       style="fill:none;stroke:#000000;stroke-width:0.56500006;stroke-linecap:butt;stroke-linejoin:miter;stroke-miterlimit:4;stroke-dasharray:none;stroke-opacity:1"
       d="m 71.437499,45.645828 c 0,5.291667 0,5.291667 0,5.291667 v 0"
       id="path970-8"
       inkscape:connector-curvature="0" />
    <path
       style="fill:none;stroke:#000000;stroke-width:0.56500006;stroke-linecap:butt;stroke-linejoin:miter;stroke-miterlimit:4;stroke-dasharray:none;stroke-opacity:1"
       d="m 108.47917,45.645828 c 0,5.291667 0,5.291667 0,5.291667 v 0"
       id="path970-3"
       inkscape:connector-curvature="0" />
    <path
       style="fill:none;stroke:#000000;stroke-width:0.56500006;stroke-linecap:butt;stroke-linejoin:miter;stroke-miterlimit:4;stroke-dasharray:none;stroke-opacity:1"
       d="m 111.36527,45.645827 c 0,5.291667 0,5.291667 0,5.291667 v 0"
       id="path970-62"
       inkscape:connector-curvature="0" />
    <path
       style="fill:none;stroke:#000000;stroke-width:0.56500006;stroke-linecap:butt;stroke-linejoin:miter;stroke-miterlimit:4;stroke-dasharray:none;stroke-opacity:1"
       d="m 145.52083,45.645828 c 0,5.291667 0,5.291667 0,5.291667 v 0"
       id="path970-69"
       inkscape:connector-curvature="0" />
    <path
       style="fill:none;stroke:#000000;stroke-width:0.56500006;stroke-linecap:butt;stroke-linejoin:miter;stroke-miterlimit:4;stroke-dasharray:none;stroke-opacity:1"
       d="m 148.16667,45.645828 c 0,5.291667 0,5.291667 0,5.291667 v 0"
       id="path970-5"
       inkscape:connector-curvature="0" />
    <path
       style="fill:none;stroke:#000000;stroke-width:0.56500006;stroke-linecap:butt;stroke-linejoin:miter;stroke-miterlimit:4;stroke-dasharray:none;stroke-opacity:1"
       d="m 182.5625,45.645828 c 0,5.291667 0,5.291667 0,5.291667 v 0"
       id="path970-1"
       inkscape:connector-curvature="0" />
    <path
       style="opacity:0;fill:#5a9e9d;fill-opacity:1;stroke:#fde725;stroke-width:3.01995826;stroke-linecap:round;stroke-linejoin:bevel;stroke-miterlimit:4;stroke-dasharray:none;stroke-dashoffset:0;stroke-opacity:0"
       d="m 143.83369,207.54133 c -3.2955,-3.5079 -3.55855,-8.79844 -0.7778,-15.64326 0.99595,-2.45152 0.62621,-2.3573 -2.77463,0.7071 l -3.9237,3.53554 0.57822,-13.73369 c 0.31803,-7.55353 1.08197,-14.23569 1.69766,-14.84925 0.61569,-0.61355 2.28036,0.31635 3.69926,2.06643 3.59288,4.43149 3.99867,4.05437 3.20586,-2.97938 -0.59881,-5.31263 -0.13656,-6.78404 3.3557,-10.68168 4.8749,-5.44077 11.15318,-7.1187 26.80871,-7.16485 9.29117,-0.0274 12.61771,0.58501 17.67767,3.25434 7.38253,3.89459 11.99066,11.20511 13.36589,21.20417 0.70695,5.14021 2.23885,8.37636 5.86514,12.39024 5.71501,6.32583 5.64532,9.7019 -0.24076,11.663 -2.31722,0.77205 -6.71704,3.21754 -9.77737,5.43444 -8.72909,6.32332 -17.50321,8.24547 -37.63845,8.24547 -17.12498,0 -18.01866,-0.14592 -21.1214,-3.44862 z"
       id="path1036"
       inkscape:connector-curvature="0"
       transform="matrix(0.26458333,0,0,0.26458333,-13.229168,35.0625)" />
    <path
       style="opacity:0;fill:#5a9e9d;fill-opacity:1;stroke:#fde725;stroke-width:3.01995826;stroke-linecap:round;stroke-linejoin:bevel;stroke-miterlimit:4;stroke-dasharray:none;stroke-dashoffset:0;stroke-opacity:0"
       d="m 143.83369,207.54133 c -3.2955,-3.5079 -3.55855,-8.79844 -0.7778,-15.64326 0.99595,-2.45152 0.62621,-2.3573 -2.77463,0.7071 l -3.9237,3.53554 0.57822,-13.73369 c 0.31803,-7.55353 1.08197,-14.23569 1.69766,-14.84925 0.61569,-0.61355 2.28036,0.31635 3.69926,2.06643 3.59288,4.43149 3.99867,4.05437 3.20586,-2.97938 -0.59881,-5.31263 -0.13656,-6.78404 3.3557,-10.68168 4.8749,-5.44077 11.15318,-7.1187 26.80871,-7.16485 9.29117,-0.0274 12.61771,0.58501 17.67767,3.25434 7.38253,3.89459 11.99066,11.20511 13.36589,21.20417 0.70695,5.14021 2.23885,8.37636 5.86514,12.39024 5.71501,6.32583 5.64532,9.7019 -0.24076,11.663 -2.31722,0.77205 -6.71704,3.21754 -9.77737,5.43444 -8.72909,6.32332 -17.50321,8.24547 -37.63845,8.24547 -17.12498,0 -18.01866,-0.14592 -21.1214,-3.44862 z"
       id="path1038"
       inkscape:connector-curvature="0"
       transform="matrix(0.26458333,0,0,0.26458333,-13.229168,35.0625)" />
    <path
       style="opacity:0;fill:#5a9e9d;fill-opacity:1;stroke:#fde725;stroke-width:3.01995826;stroke-linecap:round;stroke-linejoin:bevel;stroke-miterlimit:4;stroke-dasharray:none;stroke-dashoffset:0;stroke-opacity:0"
       d="m 143.83369,207.54133 c -3.2955,-3.5079 -3.55855,-8.79844 -0.7778,-15.64326 0.99595,-2.45152 0.62621,-2.3573 -2.77463,0.7071 l -3.9237,3.53554 0.57822,-13.73369 c 0.31803,-7.55353 1.08197,-14.23569 1.69766,-14.84925 0.61569,-0.61355 2.28036,0.31635 3.69926,2.06643 3.59288,4.43149 3.99867,4.05437 3.20586,-2.97938 -0.59881,-5.31263 -0.13656,-6.78404 3.3557,-10.68168 4.8749,-5.44077 11.15318,-7.1187 26.80871,-7.16485 9.29117,-0.0274 12.61771,0.58501 17.67767,3.25434 7.38253,3.89459 11.99066,11.20511 13.36589,21.20417 0.70695,5.14021 2.23885,8.37636 5.86514,12.39024 5.71501,6.32583 5.64532,9.7019 -0.24076,11.663 -2.31722,0.77205 -6.71704,3.21754 -9.77737,5.43444 -8.72909,6.32332 -17.50321,8.24547 -37.63845,8.24547 -17.12498,0 -18.01866,-0.14592 -21.1214,-3.44862 z"
       id="path1040"
       inkscape:connector-curvature="0"
       transform="matrix(0.26458333,0,0,0.26458333,-13.229168,35.0625)" />
    <path
       style="opacity:0;fill:#5a9e9d;fill-opacity:1;stroke:#fde725;stroke-width:3.01995826;stroke-linecap:round;stroke-linejoin:bevel;stroke-miterlimit:4;stroke-dasharray:none;stroke-dashoffset:0;stroke-opacity:0"
       d="m 143.83369,207.54133 c -3.2955,-3.5079 -3.55855,-8.79844 -0.7778,-15.64326 0.99595,-2.45152 0.62621,-2.3573 -2.77463,0.7071 l -3.9237,3.53554 0.57822,-13.73369 c 0.31803,-7.55353 1.08197,-14.23569 1.69766,-14.84925 0.61569,-0.61355 2.28036,0.31635 3.69926,2.06643 3.59288,4.43149 3.99867,4.05437 3.20586,-2.97938 -0.59881,-5.31263 -0.13656,-6.78404 3.3557,-10.68168 4.8749,-5.44077 11.15318,-7.1187 26.80871,-7.16485 9.29117,-0.0274 12.61771,0.58501 17.67767,3.25434 7.38253,3.89459 11.99066,11.20511 13.36589,21.20417 0.70695,5.14021 2.23885,8.37636 5.86514,12.39024 5.71501,6.32583 5.64532,9.7019 -0.24076,11.663 -2.31722,0.77205 -6.71704,3.21754 -9.77737,5.43444 -8.72909,6.32332 -17.50321,8.24547 -37.63845,8.24547 -17.12498,0 -18.01866,-0.14592 -21.1214,-3.44862 z"
       id="path1042"
       inkscape:connector-curvature="0"
       transform="matrix(0.26458333,0,0,0.26458333,-13.229168,35.0625)" />
    <path
       style="opacity:0.55800003;fill:#fde725;fill-opacity:0;stroke:#fde725;stroke-width:3.01995826;stroke-linecap:round;stroke-linejoin:bevel;stroke-miterlimit:4;stroke-dasharray:none;stroke-dashoffset:0;stroke-opacity:0"
       d="m 146.93403,208.19903 c -2.80719,-1.20032 -3.18198,-2.38454 -3.18198,-10.05408 v -8.6935 l -3.71745,2.43577 -3.71745,2.43576 0.94606,-8.28352 c 1.7606,-15.41544 3.14627,-18.91176 5.79599,-14.62442 1.60422,2.59568 3.52127,-0.098 3.52127,-4.94777 0,-6.2094 5.65347,-12.9331 12.46527,-14.82503 7.37649,-2.04875 23.98492,-1.69941 30.66825,0.64509 3.11127,1.09142 6.92964,3.63262 8.48528,5.6471 4.70994,6.09918 17.43846,35.22993 16.12074,36.89425 -0.66033,0.83402 -7.10127,4.32055 -14.3132,7.74784 l -13.11261,6.23143 -18.3891,0.37583 c -10.114,0.20671 -19.82098,-0.23643 -21.57107,-0.98475 z"
       id="path1058"
       inkscape:connector-curvature="0"
       transform="matrix(0.26458333,0,0,0.26458333,-13.229168,35.0625)" />
    <path
       style="opacity:0.55800003;fill:#fde725;fill-opacity:0;stroke:#fde725;stroke-width:3.01995826;stroke-linecap:round;stroke-linejoin:bevel;stroke-miterlimit:4;stroke-dasharray:none;stroke-dashoffset:0;stroke-opacity:0"
       d="m 146.93403,208.19903 c -2.80719,-1.20032 -3.18198,-2.38454 -3.18198,-10.05408 v -8.6935 l -3.71745,2.43577 -3.71745,2.43576 0.94606,-8.28352 c 1.7606,-15.41544 3.14627,-18.91176 5.79599,-14.62442 1.60422,2.59568 3.52127,-0.098 3.52127,-4.94777 0,-6.2094 5.65347,-12.9331 12.46527,-14.82503 7.37649,-2.04875 23.98492,-1.69941 30.66825,0.64509 3.11127,1.09142 6.92964,3.63262 8.48528,5.6471 4.70994,6.09918 17.43846,35.22993 16.12074,36.89425 -0.66033,0.83402 -7.10127,4.32055 -14.3132,7.74784 l -13.11261,6.23143 -18.3891,0.37583 c -10.114,0.20671 -19.82098,-0.23643 -21.57107,-0.98475 z"
       id="path1060"
       inkscape:connector-curvature="0"
       transform="matrix(0.26458333,0,0,0.26458333,-13.229168,35.0625)" />
    <path
       style="opacity:0.55800003;fill:#fde725;fill-opacity:0;stroke:#fde725;stroke-width:3.01995826;stroke-linecap:round;stroke-linejoin:bevel;stroke-miterlimit:4;stroke-dasharray:none;stroke-dashoffset:0;stroke-opacity:0"
       d="m 146.93403,208.19903 c -2.80719,-1.20032 -3.18198,-2.38454 -3.18198,-10.05408 v -8.6935 l -3.71745,2.43577 -3.71745,2.43576 0.94606,-8.28352 c 1.7606,-15.41544 3.14627,-18.91176 5.79599,-14.62442 1.60422,2.59568 3.52127,-0.098 3.52127,-4.94777 0,-6.2094 5.65347,-12.9331 12.46527,-14.82503 7.37649,-2.04875 23.98492,-1.69941 30.66825,0.64509 3.11127,1.09142 6.92964,3.63262 8.48528,5.6471 4.70994,6.09918 17.43846,35.22993 16.12074,36.89425 -0.66033,0.83402 -7.10127,4.32055 -14.3132,7.74784 l -13.11261,6.23143 -18.3891,0.37583 c -10.114,0.20671 -19.82098,-0.23643 -21.57107,-0.98475 z"
       id="path1062"
       inkscape:connector-curvature="0"
       transform="matrix(0.26458333,0,0,0.26458333,-13.229168,35.0625)" />
    <path
       style="opacity:0.55800003;fill:#fde725;fill-opacity:0;stroke:#fde725;stroke-width:3.01995826;stroke-linecap:round;stroke-linejoin:bevel;stroke-miterlimit:4;stroke-dasharray:none;stroke-dashoffset:0;stroke-opacity:0"
       d="m 146.93403,208.19903 c -2.80719,-1.20032 -3.18198,-2.38454 -3.18198,-10.05408 v -8.6935 l -3.71745,2.43577 -3.71745,2.43576 0.94606,-8.28352 c 1.7606,-15.41544 3.14627,-18.91176 5.79599,-14.62442 1.60422,2.59568 3.52127,-0.098 3.52127,-4.94777 0,-6.2094 5.65347,-12.9331 12.46527,-14.82503 7.37649,-2.04875 23.98492,-1.69941 30.66825,0.64509 3.11127,1.09142 6.92964,3.63262 8.48528,5.6471 4.70994,6.09918 17.43846,35.22993 16.12074,36.89425 -0.66033,0.83402 -7.10127,4.32055 -14.3132,7.74784 l -13.11261,6.23143 -18.3891,0.37583 c -10.114,0.20671 -19.82098,-0.23643 -21.57107,-0.98475 z"
       id="path1064"
       inkscape:connector-curvature="0"
       transform="matrix(0.26458333,0,0,0.26458333,-13.229168,35.0625)" />
    <path
       style="opacity:0.55800003;fill:#fde725;fill-opacity:0;stroke:#fde725;stroke-width:3.01995826;stroke-linecap:round;stroke-linejoin:bevel;stroke-miterlimit:4;stroke-dasharray:none;stroke-dashoffset:0;stroke-opacity:0"
       d="m 146.93403,208.19903 c -2.80719,-1.20032 -3.18198,-2.38454 -3.18198,-10.05408 v -8.6935 l -3.71745,2.43577 -3.71745,2.43576 0.94606,-8.28352 c 1.7606,-15.41544 3.14627,-18.91176 5.79599,-14.62442 1.60422,2.59568 3.52127,-0.098 3.52127,-4.94777 0,-6.2094 5.65347,-12.9331 12.46527,-14.82503 7.37649,-2.04875 23.98492,-1.69941 30.66825,0.64509 3.11127,1.09142 6.92964,3.63262 8.48528,5.6471 4.70994,6.09918 17.43846,35.22993 16.12074,36.89425 -0.66033,0.83402 -7.10127,4.32055 -14.3132,7.74784 l -13.11261,6.23143 -18.3891,0.37583 c -10.114,0.20671 -19.82098,-0.23643 -21.57107,-0.98475 z"
       id="path1066"
       inkscape:connector-curvature="0"
       transform="matrix(0.26458333,0,0,0.26458333,-13.229168,35.0625)" />
    <path
       style="opacity:0.55800003;fill:#fde725;fill-opacity:0;stroke:#fde725;stroke-width:0.75498956;stroke-linecap:round;stroke-linejoin:bevel;stroke-miterlimit:4;stroke-dasharray:none;stroke-dashoffset:0;stroke-opacity:0"
       d="m 151.27947,208.99567 c -3.6225,-0.29724 -5.48392,-1.02083 -6.62072,-2.57365 -0.67153,-0.91728 -0.74407,-1.62926 -0.9067,-8.8998 l -0.17678,-7.90275 -3.44715,2.26428 -3.44714,2.26427 v -1.03419 c 0,-1.77959 1.39932,-14.33133 1.94934,-17.48541 0.56901,-3.26292 1.39388,-5.35979 2.2355,-5.68275 0.32508,-0.12474 1.04606,0.29623 1.84727,1.07859 2.39953,2.34308 3.38425,1.18394 3.84958,-4.53142 0.55697,-6.84099 3.1201,-10.67689 9.04318,-13.53374 4.50578,-2.17325 6.29669,-2.43458 16.78402,-2.44913 9.87749,-0.0137 13.61649,0.33151 17.58976,1.62406 3.98294,1.2957 8.72094,5.52934 11.25079,10.05313 1.1737,2.09877 4.85204,10.45493 6.33193,14.38437 0.34786,0.92366 0.76996,1.67938 0.938,1.67938 0.16804,0 0.30552,0.24272 0.30552,0.53938 0,0.29666 0.69911,1.92742 1.55357,3.62392 2.15278,4.27425 5.16394,10.84812 5.16394,11.27374 0,1.30631 -12.65078,8.10667 -24.44939,13.14264 l -4.12008,1.75856 -9.13818,0.38805 c -10.03459,0.42612 -21.47126,0.43408 -26.53626,0.0185 z"
       id="path1068"
       inkscape:connector-curvature="0"
       transform="matrix(0.26458333,0,0,0.26458333,-13.229168,35.0625)" />
    <path
       style="opacity:0;fill:#fde725;fill-opacity:0;stroke:#fde725;stroke-width:0.75498956;stroke-linecap:round;stroke-linejoin:bevel;stroke-miterlimit:4;stroke-dasharray:none;stroke-dashoffset:0;stroke-opacity:0"
       d="m 149.53043,211.82384 c -4.73558,-0.9369 -8.89137,-5.4959 -9.50789,-10.43038 -0.28791,-2.30435 0.45085,-5.2956 2.13267,-8.63526 0.6887,-1.36756 1.12246,-2.48648 0.96393,-2.48648 -0.15853,0 -1.50768,1.48208 -2.9981,3.29351 -4.29555,5.22073 -4.03065,5.15597 -4.33895,1.06087 -0.1437,-1.90877 -0.16585,-6.57292 -0.0492,-10.36479 0.21406,-6.96015 0.89124,-11.5245 2.54138,-17.12957 l 0.6193,-2.10356 0.69486,0.86612 c 1.9486,2.42888 6.10488,7.05331 6.33926,7.05331 0.14734,0 0.0501,-0.61736 -0.21614,-1.37191 -2.22506,-6.30649 -0.84984,-13.22671 3.48782,-17.55096 2.36179,-2.3545 4.30012,-3.24227 9.29174,-4.25573 4.06581,-0.82549 6.32943,-1.1104 15.60424,-1.96406 7.55467,-0.69534 13.56165,0.48958 20.32804,4.00983 7.75305,4.03358 10.13421,7.9124 12.80946,20.86613 0.83571,4.04656 1.85701,8.05465 2.26956,8.90687 0.81993,1.69374 2.44711,3.49158 6.10338,6.7435 2.57487,2.29012 3.19269,3.56461 2.20618,4.55112 -0.44952,0.44952 -0.49546,0.70615 -0.1919,1.07192 0.29303,0.35307 0.29535,0.70864 0.009,1.33767 -0.31823,0.69842 -1.17203,1.10436 -4.61978,2.19644 -4.07207,1.28984 -4.4229,1.48275 -9.43118,5.18581 -7.06029,5.22028 -11.26803,6.98758 -19.69747,8.27312 -5.33374,0.81343 -12.88626,1.06247 -17.35242,0.57217 -3.20812,-0.35219 -4.78062,-0.33117 -9.30201,0.12434 -5.96124,0.60055 -5.61104,0.59236 -7.6955,0.17997 z"
       id="path1070"
       inkscape:connector-curvature="0"
       transform="matrix(0.26458333,0,0,0.26458333,-13.229168,35.0625)" />
    <path
       style="opacity:0;fill:#fde725;fill-opacity:0;stroke:#fde725;stroke-width:0.75498956;stroke-linecap:round;stroke-linejoin:bevel;stroke-miterlimit:4;stroke-dasharray:none;stroke-dashoffset:0;stroke-opacity:0"
       d="m 149.53043,211.82384 c -4.73558,-0.9369 -8.89137,-5.4959 -9.50789,-10.43038 -0.28791,-2.30435 0.45085,-5.2956 2.13267,-8.63526 0.6887,-1.36756 1.12246,-2.48648 0.96393,-2.48648 -0.15853,0 -1.50768,1.48208 -2.9981,3.29351 -4.29555,5.22073 -4.03065,5.15597 -4.33895,1.06087 -0.1437,-1.90877 -0.16585,-6.57292 -0.0492,-10.36479 0.21406,-6.96015 0.89124,-11.5245 2.54138,-17.12957 l 0.6193,-2.10356 0.69486,0.86612 c 1.9486,2.42888 6.10488,7.05331 6.33926,7.05331 0.14734,0 0.0501,-0.61736 -0.21614,-1.37191 -2.22506,-6.30649 -0.84984,-13.22671 3.48782,-17.55096 2.36179,-2.3545 4.30012,-3.24227 9.29174,-4.25573 4.06581,-0.82549 6.32943,-1.1104 15.60424,-1.96406 7.55467,-0.69534 13.56165,0.48958 20.32804,4.00983 7.75305,4.03358 10.13421,7.9124 12.80946,20.86613 0.83571,4.04656 1.85701,8.05465 2.26956,8.90687 0.81993,1.69374 2.44711,3.49158 6.10338,6.7435 2.57487,2.29012 3.19269,3.56461 2.20618,4.55112 -0.44952,0.44952 -0.49546,0.70615 -0.1919,1.07192 0.29303,0.35307 0.29535,0.70864 0.009,1.33767 -0.31823,0.69842 -1.17203,1.10436 -4.61978,2.19644 -4.07207,1.28984 -4.4229,1.48275 -9.43118,5.18581 -7.06029,5.22028 -11.26803,6.98758 -19.69747,8.27312 -5.33374,0.81343 -12.88626,1.06247 -17.35242,0.57217 -3.20812,-0.35219 -4.78062,-0.33117 -9.30201,0.12434 -5.96124,0.60055 -5.61104,0.59236 -7.6955,0.17997 z"
       id="path1072"
       inkscape:connector-curvature="0"
       transform="matrix(0.26458333,0,0,0.26458333,-13.229168,35.0625)" />
    <path
       style="opacity:0;fill:#fde725;fill-opacity:1;stroke:#fde725;stroke-width:0.75498956;stroke-linecap:round;stroke-linejoin:bevel;stroke-miterlimit:4;stroke-dasharray:none;stroke-dashoffset:0;stroke-opacity:0"
       d="m 214.58426,211.82384 c -3.42927,-0.67846 -6.64253,-3.20065 -8.25786,-6.48185 -1.95079,-3.96262 -1.76952,-7.00307 0.74864,-12.55675 0.56649,-1.24936 0.97506,-2.32647 0.90795,-2.39359 -0.0671,-0.0671 -1.61752,1.6683 -3.44534,3.85649 l -3.32331,3.97853 -0.29449,-1.94454 c -0.16197,-1.0695 -0.22633,-5.76292 -0.14302,-10.42982 0.15813,-8.85828 0.67216,-12.79752 2.39987,-18.39118 l 0.70509,-2.28282 3.40012,3.88465 c 1.87007,2.13656 3.51815,3.88465 3.6624,3.88465 0.14426,0 -0.0206,-0.91482 -0.36645,-2.03294 -1.44986,-4.6879 -1.23369,-8.61207 0.7023,-12.74919 1.41454,-3.02281 4.54615,-6.09677 7.23662,-7.1034 4.54141,-1.69916 17.58944,-3.42306 25.46765,-3.36477 6.12514,0.0453 12.73592,2.13972 18.3766,5.822 2.95324,1.92789 4.57718,3.7971 6.28192,7.2307 1.67879,3.38134 2.17435,5.03844 3.62907,12.13514 0.69051,3.3686 1.4737,6.75814 1.74042,7.53232 0.7706,2.23667 2.26483,4.10573 5.44264,6.80792 1.62736,1.3838 3.19017,2.96148 3.47292,3.50594 0.5112,0.98442 0.36833,2.36882 -0.24446,2.36882 -0.17648,0 -0.22551,0.4769 -0.10893,1.05978 0.30541,1.52705 -0.2757,2.00568 -3.70516,3.05173 -4.70565,1.43531 -5.66706,1.94989 -10.53537,5.63882 -4.55137,3.44877 -6.10893,4.31289 -11.10663,6.16185 -5.70137,2.1093 -18.68124,3.36191 -25.99614,2.50873 -2.92103,-0.3407 -4.53373,-0.31773 -8.97675,0.12783 -5.9347,0.59516 -5.58648,0.58722 -7.6703,0.17495 z"
       id="path1074"
       inkscape:connector-curvature="0"
       transform="matrix(0.26458333,0,0,0.26458333,-13.229168,35.0625)" />
    <path
       style="opacity:1;fill:#21908c;fill-opacity:1;stroke:#fde725;stroke-width:0.1174081;stroke-linecap:round;stroke-linejoin:bevel;stroke-miterlimit:4;stroke-dasharray:none;stroke-dashoffset:0;stroke-opacity:0"
       d="m -10.017273,76.230671 c -0.34716,-0.149653 -0.791502,-0.552737 -0.945577,-0.857791 -0.187134,-0.370494 -0.170755,-1.098634 0.03644,-1.620215 0.08436,-0.212349 0.153369,-0.409445 0.153369,-0.437994 0,-0.02855 -0.206285,0.12764 -0.458411,0.347088 -0.252126,0.219448 -0.49073,0.398995 -0.530231,0.398995 -0.111431,0 -0.04418,-2.789132 0.08212,-3.405811 0.100329,-0.489864 0.195345,-0.804728 0.26298,-0.87144 0.02201,-0.02172 0.29728,0.176456 0.611697,0.440386 l 0.571666,0.479872 -0.0519,-0.310394 c -0.02854,-0.170716 -0.05052,-0.556079 -0.04885,-0.856363 0.0025,-0.435584 0.0288,-0.603792 0.130385,-0.831955 0.273391,-0.613978 0.805909,-1.053962 1.51158,-1.248905 0.895012,-0.247249 2.492717,-0.387691 4.014053,-0.352841 0.834884,0.01913 0.952296,0.03409 1.41737,0.180643 0.6818,0.214849 1.326997,0.550324 1.774737,0.922788 0.601932,0.500736 0.722114,0.743884 1.263645,2.556536 0.178707,0.598183 0.338541,1.127856 0.355187,1.177049 0.01664,0.04919 0.329602,0.387356 0.69546,0.751467 0.716539,0.713119 0.74902,0.776895 0.579998,1.138707 -0.06787,0.145274 -0.15361,0.209442 -0.421485,0.315425 -0.896403,0.354656 -1.203576,0.501792 -1.866732,0.894162 -1.257344,0.743934 -2.023953,1.019521 -3.207638,1.153099 -0.421876,0.04764 -4.134327,0.153638 -5.290374,0.151098 -0.267023,-5.56e-4 -0.454631,-0.03391 -0.639495,-0.113606 z"
       id="path1090"
       inkscape:connector-curvature="0" />
    <path
       style="opacity:1;fill:#440154;fill-opacity:1;stroke:#fde725;stroke-width:0.10970188;stroke-linecap:round;stroke-linejoin:bevel;stroke-miterlimit:4;stroke-dasharray:none;stroke-dashoffset:0;stroke-opacity:0"
       d="m -9.837099,115.33974 c -0.32968,-0.13757 -0.75165,-0.50814 -0.89797,-0.78857 -0.17771,-0.3406 -0.16216,-1.00999 0.0346,-1.4895 0.0801,-0.19522 0.14564,-0.3764 0.14564,-0.40265 0,-0.0263 -0.19589,0.11735 -0.43533,0.31908 -0.23943,0.20175 -0.46603,0.36681 -0.50353,0.36681 -0.10584,0 -0.042,-2.5641 0.078,-3.13103 0.0953,-0.45034 0.1855,-0.7398 0.24974,-0.80112 0.0209,-0.02 0.28231,0.16221 0.5809,0.40484 l 0.54288,0.44117 -0.0493,-0.28536 c -0.0271,-0.15693 -0.048,-0.51122 -0.0464,-0.78727 0.002,-0.40044 0.0273,-0.55507 0.12383,-0.76483 0.25962,-0.56443 0.76535,-0.96892 1.43548,-1.14813 0.84996,-0.2273 2.36723,-0.35641 3.81198,-0.32438 0.79286,0.0176 0.90436,0.0314 1.34601,0.16607 0.64749,0.19752 1.26019,0.50592 1.68539,0.84833 0.57164,0.46033 0.68577,0.68386 1.20004,2.35028 0.1697,0.54991 0.3215,1.03686 0.3373,1.08207 0.0158,0.0451 0.31301,0.3561 0.66046,0.69084 0.68045,0.65558 0.7113,0.71422 0.55079,1.04683 -0.0645,0.13356 -0.14587,0.19255 -0.40027,0.28998 -0.85127,0.32603 -1.14298,0.4613 -1.77275,0.82202 -1.19405,0.68391 -1.92207,0.93725 -3.04616,1.06005 -0.40063,0.0438 -3.92619,0.14125 -5.02404,0.13891 -0.25358,-5e-4 -0.43175,-0.0312 -0.60731,-0.10444 z"
       id="path1090-1-6-3-1-8-8"
       inkscape:connector-curvature="0" />
    <path
       style="opacity:1;fill:#360c40;fill-opacity:1;stroke:#fde725;stroke-width:0.10970188;stroke-linecap:round;stroke-linejoin:bevel;stroke-miterlimit:4;stroke-dasharray:none;stroke-dashoffset:0;stroke-opacity:0"
       d="m -9.632029,123.06656 c -0.32968,-0.13757 -0.75165,-0.50814 -0.89797,-0.78858 -0.17771,-0.34059 -0.16216,-1.00999 0.0346,-1.48949 0.0801,-0.19522 0.14564,-0.37641 0.14564,-0.40265 0,-0.0263 -0.19589,0.11735 -0.43533,0.31908 -0.23943,0.20174 -0.46603,0.3668 -0.50353,0.3668 -0.10584,0 -0.042,-2.56409 0.078,-3.13102 0.0953,-0.45034 0.1855,-0.7398 0.24974,-0.80113 0.0209,-0.02 0.28231,0.16222 0.5809,0.40485 l 0.54288,0.44117 -0.0493,-0.28536 c -0.0271,-0.15693 -0.048,-0.51122 -0.0464,-0.78727 0.002,-0.40044 0.0273,-0.55508 0.12383,-0.76483 0.25962,-0.56444 0.76535,-0.96892 1.43548,-1.14813 0.84996,-0.2273 2.36723,-0.35642 3.81198,-0.32439 0.79286,0.0176 0.90436,0.0314 1.34601,0.16608 0.64749,0.19752 1.26019,0.50592 1.68539,0.84833 0.57164,0.46033 0.68577,0.68386 1.20004,2.35028 0.1697,0.54991 0.3215,1.03685 0.3373,1.08207 0.0158,0.0451 0.31301,0.3561 0.66046,0.69084 0.68045,0.65558 0.7113,0.71421 0.55079,1.04683 -0.0645,0.13355 -0.14587,0.19254 -0.40027,0.28998 -0.85127,0.32603 -1.14298,0.4613 -1.77275,0.82202 -1.19405,0.68391 -1.92207,0.93725 -3.04616,1.06005 -0.40063,0.0438 -3.92619,0.14125 -5.02404,0.13891 -0.25358,-5e-4 -0.43175,-0.0312 -0.60731,-0.10444 z"
       id="path1090-1-6-3-1-8-9"
       inkscape:connector-curvature="0" />
    <path
       style="opacity:1;fill:#65067c;fill-opacity:0.88832487;stroke:#fde725;stroke-width:0.10970188;stroke-linecap:round;stroke-linejoin:bevel;stroke-miterlimit:4;stroke-dasharray:none;stroke-dashoffset:0;stroke-opacity:0"
       d="m -10.042169,108.67126 c -0.32968,-0.13757 -0.75165,-0.50814 -0.89797,-0.78858 -0.17771,-0.34059 -0.16216,-1.00999 0.0346,-1.48949 0.0801,-0.19522 0.14565,-0.37641 0.14565,-0.40265 0,-0.0263 -0.1959,0.11735 -0.43534,0.31908 -0.23943,0.20174 -0.46603,0.3668 -0.50353,0.3668 -0.10583,0 -0.042,-2.56409 0.078,-3.13102 0.0953,-0.45034 0.18551,-0.7398 0.24974,-0.80112 0.0209,-0.02 0.28231,0.16221 0.58091,0.40484 l 0.54288,0.44117 -0.0493,-0.28536 c -0.0271,-0.15693 -0.048,-0.51122 -0.0464,-0.78727 0.002,-0.40044 0.0273,-0.55507 0.12383,-0.76483 0.25961,-0.56444 0.76534,-0.96892 1.43548,-1.14813 0.84995,-0.2273 2.36723,-0.35642 3.81197,-0.32438 0.79286,0.0176 0.90436,0.0314 1.34602,0.16607 0.64748,0.19752 1.26019,0.50592 1.68538,0.84833 0.57164,0.46033 0.68577,0.68386 1.20004,2.35028 0.1697,0.54991 0.3215,1.03686 0.3373,1.08207 0.0158,0.0451 0.31301,0.3561 0.66046,0.69084 0.68046,0.65558 0.71131,0.71421 0.5508,1.04683 -0.0645,0.13355 -0.14588,0.19254 -0.40027,0.28998 -0.85128,0.32603 -1.14299,0.4613 -1.77275,0.82202 -1.19406,0.68391 -1.92208,0.93725 -3.04616,1.06005 -0.40064,0.0437 -3.9262,0.14125 -5.02404,0.13891 -0.25358,-5e-4 -0.43175,-0.0312 -0.60731,-0.10444 z"
       id="path1090-1-6-3-1-8-3"
       inkscape:connector-curvature="0" />
    <path
       style="opacity:1;fill:#aa56be;fill-opacity:1;stroke:#fde725;stroke-width:0.10970189;stroke-linecap:round;stroke-linejoin:bevel;stroke-miterlimit:4;stroke-dasharray:none;stroke-dashoffset:0;stroke-opacity:0"
       d="m -10.247229,103.59029 c -0.329681,-0.13757 -0.751652,-0.50815 -0.897972,-0.78858 -0.177708,-0.34059 -0.162157,-1.00999 0.03462,-1.48949 0.08013,-0.19522 0.145647,-0.37641 0.145647,-0.40266 0,-0.0263 -0.195893,0.11736 -0.435333,0.31909 -0.239431,0.20174 -0.466034,0.3668 -0.503535,0.3668 -0.105833,0 -0.04199,-2.564095 0.07801,-3.131022 0.09526,-0.450342 0.185509,-0.739802 0.249741,-0.801129 0.02092,-0.01998 0.282312,0.162219 0.580906,0.404848 l 0.542881,0.441165 -0.0493,-0.285358 c -0.02707,-0.156932 -0.04798,-0.511218 -0.04642,-0.78727 0.0024,-0.400436 0.02731,-0.555073 0.123829,-0.764828 0.259617,-0.564437 0.765343,-0.968922 1.435482,-1.148131 0.849957,-0.227301 2.367227,-0.356416 3.811967,-0.324384 0.79286,0.01763 0.90437,0.03138 1.34602,0.166076 0.64749,0.197515 1.26019,0.505917 1.68539,0.848329 0.57164,0.460328 0.68577,0.683861 1.20003,2.350277 0.16971,0.549914 0.32151,1.036856 0.33731,1.08207 0.0158,0.04514 0.31301,0.356107 0.66046,0.690837 0.68045,0.65558 0.7113,0.71422 0.55079,1.04684 -0.0645,0.13355 -0.14588,0.19254 -0.40027,0.28998 -0.85127,0.32603 -1.14298,0.46129 -1.77275,0.82202 -1.19405,0.68391 -1.92207,0.93725 -3.04616,1.06004 -0.40063,0.0438 -3.926193,0.14125 -5.024037,0.13892 -0.253581,-5.1e-4 -0.43175,-0.0312 -0.60731,-0.10444 z"
       id="path1090-1-6-3-1-8-0-9"
       inkscape:connector-curvature="0" />
    <path
       style="opacity:1;fill:#fde725;fill-opacity:1;stroke:#fde725;stroke-width:0.1094748;stroke-linecap:round;stroke-linejoin:bevel;stroke-miterlimit:4;stroke-dasharray:none;stroke-dashoffset:0;stroke-opacity:0"
       d="m -10.452269,98.509308 c -0.355849,-0.129481 -0.783108,-0.50662 -0.966399,-0.85303 -0.08872,-0.167673 -0.136208,-0.354722 -0.149658,-0.589463 -0.02002,-0.349421 0.01526,-0.481887 0.304229,-1.142086 0.06208,-0.141839 0.09218,-0.25789 0.06689,-0.25789 -0.02529,0 -0.25137,0.220378 -0.502398,0.48973 -0.330087,0.354182 -0.465231,0.468636 -0.488268,0.413519 -0.0554,-0.132542 -0.03442,-2.302038 0.02736,-2.82936 0.05407,-0.46156 0.264745,-1.340676 0.357418,-1.491479 0.02544,-0.0414 0.204788,0.109436 0.538494,0.452899 0.275191,0.283237 0.513169,0.503204 0.528841,0.488814 0.01567,-0.01439 -0.01416,-0.212769 -0.06629,-0.440846 -0.222077,-0.971576 0.08138,-1.811248 0.8464589,-2.342141 0.374912,-0.260154 0.9608,-0.402902 2.310401,-0.562911 1.61673,-0.19168 2.61724,-0.143084 3.56989,0.173397 0.98347,0.326721 1.67814,0.822583 2.02918,1.44845 0.25444,0.453638 0.32224,0.656295 0.603,1.802234 0.13033,0.531939 0.27929,1.051403 0.33104,1.154365 0.0517,0.102965 0.36657002,0.433902 0.69960005,0.735418 0.45489,0.411837 0.60552,0.579138 0.60552,0.67253 0,0.06837 -0.0241,0.137975 -0.0535,0.154673 -0.0294,0.0167 -0.0535,0.107664 -0.0535,0.202149 0,0.192019 -0.0359,0.21203 -0.86509003,0.481887 -0.22567002,0.07344 -0.55611002,0.225893 -0.73432002,0.338775 -0.17821,0.112882 -0.5714,0.361153 -0.87377,0.551713 -1.23052,0.775516 -2.09398,0.961017 -4.58925,0.985927 -0.89752,0.009 -1.980965,0.02818 -2.407654,0.04271 -0.7092489,0.02416 -0.8008829,0.01729 -1.0682199,-0.07998 z"
       id="path1080-2"
       inkscape:connector-curvature="0" />
    <path
       style="opacity:1;fill:#faea5b;fill-opacity:1;stroke:#fde725;stroke-width:0.1094748;stroke-linecap:round;stroke-linejoin:bevel;stroke-miterlimit:4;stroke-dasharray:none;stroke-dashoffset:0;stroke-opacity:0"
       d="m -9.9973662,88.952323 c -0.3558498,-0.12948 -0.7830998,-0.50662 -0.9663998,-0.85303 -0.0887,-0.16768 -0.1362,-0.35473 -0.14965,-0.58947 -0.02,-0.34942 0.0153,-0.48188 0.30423,-1.14208 0.0621,-0.14184 0.0922,-0.25789 0.0669,-0.25789 -0.0253,0 -0.25137,0.22038 -0.5024,0.48973 -0.33009,0.35418 -0.46523,0.46863 -0.48827,0.41352 -0.0554,-0.13255 -0.0344,-2.30204 0.0274,-2.82936 0.0541,-0.46156 0.26474,-1.34068 0.35742,-1.49148 0.0254,-0.0414 0.20479,0.10943 0.53849,0.4529 0.27519,0.28323 0.51317,0.5032 0.52884,0.48881 0.0157,-0.0144 -0.0142,-0.21277 -0.0663,-0.44085 -0.22207,-0.97157 0.0814,-1.81124 0.8464598,-2.34214 0.37491,-0.26015 0.9608,-0.4029 2.31041,-0.56291 1.61673,-0.19168 2.61724,-0.14308 3.56989,0.1734 0.98347,0.32672 1.67814,0.82258 2.02918,1.44845 0.25444,0.45364 0.32224,0.65629 0.60300004,1.80223 0.13033,0.53194 0.27929,1.05141 0.33104,1.15437 0.0517,0.10296 0.36657,0.4339 0.6996,0.73542 0.45489,0.41183 0.60552,0.57913 0.60552,0.67253 0,0.0684 -0.0241,0.13797 -0.0535,0.15467 -0.0294,0.0167 -0.0535,0.10766 -0.0535,0.20215 0,0.19202 -0.0359,0.21203 -0.86509,0.48189 -0.22567,0.0734 -0.55611,0.22589 -0.73432004,0.33877 -0.17821,0.11288 -0.5714,0.36115 -0.87377,0.55171 -1.23052,0.77552 -2.09398,0.96102 -4.58925,0.98593 -0.89752,0.009 -1.98097,0.0282 -2.40766,0.0427 -0.70925,0.0242 -0.80088,0.0173 -1.06822,-0.08 z"
       id="path1080-6-0"
       inkscape:connector-curvature="0" />
    <path
       style="opacity:1;fill:#39b9b4;fill-opacity:1;stroke:#fde725;stroke-width:0.1174081;stroke-linecap:round;stroke-linejoin:bevel;stroke-miterlimit:4;stroke-dasharray:none;stroke-dashoffset:0;stroke-opacity:0"
       d="m -10.2331,70.703761 c -0.34716,-0.149653 -0.79151,-0.552737 -0.94558,-0.857791 -0.18713,-0.370494 -0.17076,-1.098634 0.0364,-1.620215 0.0844,-0.212349 0.15337,-0.409445 0.15337,-0.437994 0,-0.02855 -0.20629,0.12764 -0.45841,0.347088 -0.25213,0.219448 -0.49073,0.398995 -0.53023,0.398995 -0.11143,0 -0.0442,-2.789132 0.0821,-3.405811 0.10033,-0.489864 0.19534,-0.804728 0.26298,-0.87144 0.022,-0.02172 0.29728,0.176456 0.61169,0.440386 l 0.57167,0.479872 -0.0519,-0.310394 c -0.0285,-0.170716 -0.0505,-0.556079 -0.0489,-0.856363 0.002,-0.435584 0.0288,-0.603792 0.13038,-0.831955 0.2734,-0.613978 0.80591,-1.053962 1.511579,-1.248905 0.89501,-0.247249 2.492707,-0.387691 4.014057,-0.352841 0.83488,0.01913 0.9523,0.03409 1.41737,0.180643 0.6818,0.214849 1.327,0.550324 1.77474,0.922788 0.60193,0.500736 0.72211,0.743884 1.26364,2.556536 0.17871,0.598183 0.33854,1.127856 0.35519,1.177049 0.0166,0.04919 0.3296,0.387356 0.69546,0.751467 0.71654,0.713119 0.74902,0.776895 0.58,1.138707 -0.0679,0.145274 -0.15361,0.209442 -0.42149,0.315425 -0.8964,0.354656 -1.20357,0.501792 -1.86673,0.894162 -1.25734,0.743934 -2.02395,1.019521 -3.20764,1.153099 -0.42187,0.04764 -4.134327,0.153638 -5.290366,0.151098 -0.26703,-5.55e-4 -0.45464,-0.03391 -0.6395,-0.113606 z"
       id="path1090-6-6-8"
       inkscape:connector-curvature="0"
       inkscape:transform-center-x="-10.289983"
       inkscape:transform-center-y="0.18711169" />
    <path
       style="opacity:1;fill:#f5eb90;fill-opacity:1;stroke:#fde725;stroke-width:0.1094748;stroke-linecap:round;stroke-linejoin:bevel;stroke-miterlimit:4;stroke-dasharray:none;stroke-dashoffset:0;stroke-opacity:0"
       d="m -10.017323,81.522371 c -0.35585,-0.12948 -0.7831,-0.50662 -0.9664,-0.85303 -0.0887,-0.16768 -0.1362,-0.35473 -0.14965,-0.58947 -0.02,-0.34942 0.0153,-0.48188 0.30423,-1.14208 0.0621,-0.14184 0.0922,-0.25789 0.0669,-0.25789 -0.0253,0 -0.25137,0.22038 -0.5024,0.48973 -0.33009,0.35418 -0.46523,0.46863 -0.48827,0.41352 -0.0554,-0.13255 -0.0344,-2.30204 0.0274,-2.82936 0.0541,-0.46156 0.26474,-1.34068 0.35742,-1.49148 0.0254,-0.0414 0.20479,0.10943 0.53849,0.4529 0.27519,0.28323 0.51317,0.5032 0.52884,0.48881 0.0157,-0.0144 -0.0142,-0.21277 -0.0663,-0.44085 -0.22207,-0.97157 0.0814,-1.81124 0.84646,-2.34214 0.37491,-0.26015 0.960801,-0.4029 2.31041,-0.56291 1.616731,-0.19168 2.617241,-0.14308 3.569891,0.1734 0.98347,0.32672 1.67814,0.82258 2.02918,1.44845 0.25444,0.45364 0.32224,0.65629 0.603,1.80223 0.13033001,0.53194 0.27929001,1.05141 0.33104001,1.15437 0.0517,0.10296 0.36657,0.4339 0.6996,0.73542 0.45488999,0.41183 0.60551999,0.57913 0.60551999,0.67253 0,0.0684 -0.0241,0.13797 -0.0535,0.15467 -0.0294,0.0167 -0.0535,0.10766 -0.0535,0.20215 0,0.19202 -0.0359,0.21203 -0.86508999,0.48189 -0.22567,0.0734 -0.55611,0.22589 -0.73432001,0.33877 -0.17821,0.11288 -0.5714,0.36115 -0.87377,0.55171 -1.23052,0.77552 -2.09398,0.96102 -4.589251,0.98593 -0.897519,0.009 -1.980969,0.0282 -2.40766,0.0427 -0.70925,0.0242 -0.80088,0.0173 -1.06822,-0.08 z"
       id="path1080-6-0-1-1-7"
       inkscape:connector-curvature="0" />
    <path
       style="opacity:1;fill:#8ed0cd;fill-opacity:0.99492385;stroke:#fde725;stroke-width:0.1174081;stroke-linecap:round;stroke-linejoin:bevel;stroke-miterlimit:4;stroke-dasharray:none;stroke-dashoffset:0;stroke-opacity:0"
       d="m -10.44899,65.176851 c -0.34716,-0.149653 -0.79151,-0.552737 -0.94558,-0.857791 -0.18713,-0.370494 -0.17076,-1.098634 0.0364,-1.620215 0.0844,-0.212349 0.15337,-0.409445 0.15337,-0.437994 0,-0.02855 -0.20629,0.12764 -0.45841,0.347088 -0.25213,0.219448 -0.49073,0.398995 -0.53023,0.398995 -0.11143,0 -0.0442,-2.789132 0.0821,-3.405811 0.10033,-0.489864 0.19534,-0.804728 0.26298,-0.87144 0.022,-0.02172 0.29728,0.176456 0.61169,0.440386 l 0.57167,0.479872 -0.0519,-0.310394 c -0.0285,-0.170716 -0.0505,-0.556079 -0.0489,-0.856363 0.002,-0.435584 0.0288,-0.603792 0.13038,-0.831955 0.2734,-0.613978 0.8059096,-1.053962 1.5115796,-1.248905 0.895011,-0.247249 2.492714,-0.387691 4.014064,-0.352841 0.83488,0.01913 0.9523,0.03409 1.41737,0.180643 0.6818,0.214849 1.327,0.550324 1.77474,0.922788 0.60193,0.500736 0.72211,0.743884 1.26364001,2.556536 0.17871,0.598183 0.33854,1.127856 0.35519,1.177049 0.0166,0.04919 0.3296,0.387356 0.69546,0.751467 0.71653999,0.713119 0.74901999,0.776895 0.58,1.138707 -0.0679,0.145274 -0.15361,0.209442 -0.42149,0.315425 -0.8964,0.354656 -1.20357,0.501792 -1.86673001,0.894162 -1.25734,0.743934 -2.02395,1.019521 -3.20764,1.153099 -0.42187,0.04764 -4.134333,0.153638 -5.290374,0.151098 -0.2670296,-5.55e-4 -0.4546396,-0.03391 -0.6394996,-0.113606 z"
       id="path1090-6-6-0-2"
       inkscape:connector-curvature="0" />
  </g>
</svg>
